<?xml version="1.0" standalone="no"?>
<!DOCTYPE svg PUBLIC "-//W3C//DTD SVG 20010904//EN"
 "http://www.w3.org/TR/2001/REC-SVG-20010904/DTD/svg10.dtd">
<svg version="1.0" xmlns="http://www.w3.org/2000/svg"
 width="3000.000000pt" height="3000.000000pt" viewBox="0 0 3000.000000 3000.000000"
 preserveAspectRatio="xMidYMid meet">

<g transform="translate(0.000000,3000.000000) scale(0.100000,-0.100000)"
fill="#000000" stroke="none">
<path d="M0 15000 l0 -15000 15000 0 15000 0 0 15000 0 15000 -15000 0 -15000
0 0 -15000z m22333 3601 l137 -1 0 -40 c0 -29 4 -40 15 -40 13 0 15 -23 15
-150 l0 -150 190 0 190 0 0 -935 c0 -824 -2 -935 -15 -935 -8 0 -15 -7 -15
-15 0 -13 -26 -15 -175 -15 -149 0 -175 -2 -175 -15 0 -8 -7 -15 -15 -15 -12
0 -15 -19 -15 -115 0 -94 3 -117 15 -121 8 -4 15 -10 15 -15 0 -5 -7 -9 -15
-9 -8 0 -15 -7 -15 -15 0 -8 7 -15 15 -15 8 0 15 -7 15 -15 0 -8 -7 -15 -15
-15 -8 0 -15 -7 -15 -15 0 -13 -161 -15 -1390 -15 l-1390 0 0 190 c0 162 2
190 15 190 8 0 15 7 15 15 0 12 18 15 100 15 82 0 100 -3 100 -15 0 -13 108
-15 910 -15 802 0 910 2 910 15 0 10 10 15 30 15 20 0 30 -5 30 -15 0 -13 33
-15 235 -15 202 0 235 2 235 15 0 8 5 15 10 15 6 0 10 -7 10 -15 0 -8 6 -15
14 -15 8 0 16 7 20 15 4 11 22 15 76 15 l70 0 0 920 0 920 -1990 0 -1990 0 -2
-202 -3 -203 -202 -3 -203 -2 0 -205 0 -205 395 0 395 0 0 220 0 220 1595 0
1595 0 0 -540 0 -540 -1390 0 -1390 0 0 -1730 0 -1730 1390 0 1390 0 0 -540 0
-540 -1595 0 -1595 0 0 205 0 205 -325 0 c-282 0 -325 2 -325 15 0 12 -13 15
-55 15 -42 0 -55 -3 -55 -15 0 -8 -7 -15 -15 -15 -10 0 -15 -10 -15 -29 0 -16
6 -31 15 -35 8 -3 15 -10 15 -16 0 -5 -7 -10 -15 -10 -13 0 -15 -23 -15 -145
l0 -145 181 0 c246 0 229 18 229 -242 l0 -198 1990 0 1990 0 0 935 0 935 -350
0 c-304 0 -350 2 -350 15 0 8 -7 15 -15 15 -8 0 -15 -7 -15 -15 0 -8 -7 -15
-15 -15 -8 0 -15 7 -15 15 0 8 -7 15 -15 15 -8 0 -15 -7 -15 -15 0 -8 -7 -15
-15 -15 -8 0 -15 7 -15 15 0 8 -7 15 -15 15 -8 0 -15 -7 -15 -15 0 -8 -7 -15
-15 -15 -8 0 -15 7 -15 15 0 8 -7 15 -15 15 -8 0 -15 -7 -15 -15 0 -13 -70
-15 -570 -15 -500 0 -570 2 -570 15 0 13 -21 15 -129 15 -105 0 -130 -3 -135
-15 -4 -13 -39 -15 -221 -15 -184 0 -215 2 -215 15 0 8 -7 15 -15 15 -13 0
-15 26 -15 170 0 157 2 172 20 190 20 20 33 20 1390 20 1211 0 1370 -2 1370
-15 0 -8 7 -15 15 -15 12 0 15 -14 15 -70 0 -56 -3 -70 -15 -70 -11 0 -15 -12
-15 -45 0 -33 4 -45 15 -45 11 0 15 -12 15 -45 0 -33 -4 -45 -15 -45 -8 0 -15
-7 -15 -15 0 -13 28 -15 190 -15 162 0 190 -2 190 -15 0 -8 7 -15 15 -15 13 0
15 -103 15 -865 0 -762 -2 -865 -15 -865 -8 0 -15 -5 -15 -10 0 -6 7 -13 15
-16 11 -5 15 -21 15 -60 0 -53 0 -54 -30 -54 -20 0 -30 -5 -30 -15 0 -11 -12
-15 -45 -15 -33 0 -45 4 -45 15 0 12 -16 15 -85 15 -69 0 -85 -3 -85 -15 0
-10 -10 -15 -30 -15 -20 0 -30 -5 -30 -15 0 -8 -7 -15 -15 -15 -10 0 -15 -10
-15 -30 0 -20 5 -30 15 -30 10 0 15 -10 15 -30 0 -20 -5 -30 -15 -30 -12 0
-15 -18 -15 -100 0 -82 -3 -100 -15 -100 -8 0 -15 -7 -15 -15 0 -13 -228 -15
-1990 -15 l-1990 0 0 190 c0 162 -2 190 -15 190 -8 0 -15 7 -15 15 0 13 -28
15 -190 15 l-190 0 0 205 0 205 -190 0 -190 0 0 198 c0 260 17 242 -229 242
l-181 0 -1 1493 c0 820 -1 1641 -1 1822 -1 182 -1 576 0 877 l2 548 203 2 202
3 3 143 c2 120 0 143 -13 148 -24 10 -20 99 5 124 19 19 33 20 205 20 l185 0
0 185 c0 172 1 186 20 205 19 19 33 20 205 20 l185 0 0 190 0 190 1528 2 c840
2 1680 2 1867 1 187 -1 402 -2 478 -2z m-10793 -191 l0 -190 185 0 c172 0 186
-1 205 -20 19 -19 20 -33 20 -205 l0 -185 185 0 c172 0 186 -1 205 -20 24 -24
26 -40 5 -40 -9 0 -15 -9 -15 -25 0 -16 6 -25 15 -25 12 0 15 -15 15 -75 0
-60 -3 -75 -15 -75 -8 0 -15 -7 -15 -15 0 -8 7 -15 15 -15 11 0 15 -12 15 -45
0 -33 -4 -45 -15 -45 -21 0 -18 -11 9 -37 23 -22 31 -23 205 -23 l181 0 2
-2032 c0 -1118 0 -2376 -2 -2795 l-3 -763 1027 0 1026 0 0 1140 c0 1007 2
1140 15 1140 8 0 15 7 15 15 0 13 27 15 180 15 153 0 180 -2 180 -15 0 -8 7
-15 15 -15 13 0 15 -133 15 -1140 0 -1007 -2 -1140 -15 -1140 -8 0 -15 -7 -15
-15 0 -12 -17 -15 -90 -15 -73 0 -90 3 -90 15 0 11 -12 15 -45 15 -33 0 -45
-4 -45 -15 0 -10 -10 -15 -30 -15 -20 0 -30 5 -30 15 0 21 -8 19 -36 -7 -23
-23 -24 -27 -24 -205 l0 -183 -1025 0 c-904 0 -1025 2 -1025 15 0 8 -7 15 -15
15 -13 0 -15 26 -15 175 l0 175 -40 0 c-29 0 -40 4 -40 15 0 12 -15 15 -75 15
-60 0 -75 -3 -75 -15 0 -10 -10 -15 -30 -15 -20 0 -30 5 -30 15 0 11 -12 15
-45 15 l-45 0 0 2780 0 2780 -205 0 -205 0 0 -1200 c0 -1060 -2 -1200 -15
-1200 -8 0 -15 -7 -15 -15 0 -8 -4 -15 -10 -15 -5 0 -10 7 -10 15 0 8 -6 15
-14 15 -8 0 -16 -7 -20 -15 -4 -11 -21 -15 -61 -15 -42 0 -55 3 -55 15 0 13
-31 15 -220 15 -189 0 -220 -2 -220 -15 0 -12 -15 -15 -75 -15 l-75 0 0 -205
c0 -176 -2 -205 -15 -205 -8 0 -15 -7 -15 -15 0 -13 -114 -15 -965 -15 l-965
0 0 -1140 0 -1140 -615 0 -615 0 0 1670 0 1670 1375 0 1375 0 0 600 0 600
-1375 0 -1375 0 0 540 0 540 1586 0 c1062 0 1583 -3 1579 -10 -3 -6 1 -13 9
-16 14 -5 16 -34 16 -210 l0 -204 395 0 395 0 0 205 0 205 -202 2 -203 3 -3
203 -2 202 -1975 0 -1975 0 0 -890 c0 -784 -2 -890 -15 -890 -10 0 -15 -10
-15 -30 0 -27 3 -30 30 -30 20 0 30 -5 30 -15 0 -13 158 -15 1360 -15 l1360 0
0 -170 c0 -157 -2 -172 -20 -190 -20 -20 -33 -20 -1390 -20 l-1370 0 0 190 0
190 -190 0 -190 0 0 950 0 950 190 0 190 0 0 190 0 190 2005 0 2005 0 0 -190z
m3252 3 l3 -188 193 -3 c161 -2 192 -5 192 -17 0 -8 7 -15 15 -15 13 0 15
-130 15 -1110 0 -980 -2 -1110 -15 -1110 -8 0 -15 -7 -15 -15 0 -13 -28 -15
-195 -15 l-195 0 0 1125 0 1125 -817 2 -818 3 -3 203 -2 202 820 0 820 0 2
-187z m-412 -1743 l0 -1140 605 0 605 0 0 1120 c0 1107 0 1120 20 1140 20 20
33 20 630 20 l610 0 0 -2810 0 -2810 -610 0 c-597 0 -610 0 -630 20 -20 20
-20 33 -20 1085 0 940 2 1065 15 1065 9 0 15 9 15 25 0 16 -6 25 -15 25 -10 0
-15 10 -15 30 l0 30 -605 0 -605 0 0 -1140 0 -1140 -615 0 c-540 0 -615 2
-615 15 0 8 -6 15 -13 15 -11 0 -13 495 -13 2780 0 2271 2 2780 13 2780 7 0
13 7 13 15 0 13 75 15 615 15 l615 0 0 -1140z m-6820 -2955 c0 -1605 -2 -1816
-15 -1821 -10 -4 -15 -20 -15 -45 0 -28 4 -39 15 -39 8 0 15 -7 15 -15 0 -13
96 -15 805 -15 l805 0 0 -205 0 -205 -805 0 c-709 0 -805 2 -805 15 0 8 -7 15
-15 15 -13 0 -15 26 -15 175 0 149 -2 175 -15 175 -8 0 -15 7 -15 15 0 13 -26
15 -175 15 l-175 0 0 1875 0 1875 205 0 205 0 0 -1815z m4360 745 c0 -27 5
-43 15 -46 8 -4 15 -12 15 -20 0 -8 -7 -14 -15 -14 -8 0 -15 -4 -15 -10 0 -5
7 -10 15 -10 8 0 15 -6 15 -14 0 -8 -7 -16 -15 -20 -8 -3 -15 -10 -15 -16 0
-5 7 -10 15 -10 8 0 15 -6 15 -14 0 -8 -7 -16 -15 -20 -8 -3 -15 -10 -15 -16
0 -5 7 -10 15 -10 8 0 15 -7 15 -15 0 -8 -7 -15 -15 -15 -8 0 -15 -7 -15 -15
0 -8 7 -15 15 -15 8 0 15 -7 15 -15 0 -8 -7 -15 -15 -15 -8 0 -15 -7 -15 -15
0 -8 7 -15 15 -15 8 0 15 -7 15 -15 0 -8 -7 -15 -15 -15 -8 0 -15 -7 -15 -15
0 -13 -28 -15 -190 -15 l-190 0 0 -190 0 -190 -775 0 c-682 0 -775 -2 -775
-15 0 -8 -7 -15 -15 -15 -13 0 -15 -101 -15 -850 0 -749 2 -850 15 -850 8 0
15 -7 15 -15 0 -8 -7 -15 -15 -15 -12 0 -15 -16 -15 -85 l0 -85 -45 0 c-33 0
-45 4 -45 15 0 13 -23 15 -145 15 l-145 0 0 1140 c0 1007 2 1140 15 1140 8 0
15 7 15 15 0 13 112 15 950 15 l950 0 0 205 0 205 205 0 205 0 0 -40z"/>
<path d="M17688 17349 c-17 -18 -18 -145 -18 -2369 l0 -2350 205 0 205 0 0
1110 c0 980 -2 1110 -15 1110 -13 0 -15 145 -15 1245 l0 1245 -75 0 c-60 0
-75 3 -75 15 0 12 -13 15 -60 15 -47 0 -60 -3 -60 -15 0 -8 -5 -15 -10 -15 -6
0 -13 7 -16 15 -8 21 -45 17 -66 -6z"/>
</g>
</svg>
